<svg xmlns="http://www.w3.org/2000/svg" xmlns:xlink="http://www.w3.org/1999/xlink" width="500" zoomAndPan="magnify" viewBox="0 0 375 374.999991" height="500" preserveAspectRatio="xMidYMid meet" version="1.0"><defs><clipPath id="332f522b54"><path d="M 26.902344 15 L 337.402344 15 L 337.402344 346.789062 L 26.902344 346.789062 Z M 26.902344 15 " clip-rule="nonzero"/></clipPath></defs><path fill="#f7931e" d="M 277.292969 226 C 276.828125 225.773438 276.457031 225.441406 276.183594 225.003906 C 274.679688 225.199219 273.167969 225.296875 271.652344 225.300781 C 269.820312 225.300781 268 225.148438 266.191406 224.847656 C 267.214844 227.101562 268.539062 229.164062 270.160156 231.03125 C 271.777344 232.902344 273.632812 234.5 275.714844 235.832031 C 279.777344 238.386719 282.265625 237.953125 287.09375 236.984375 C 285.003906 231.460938 283.023438 228.738281 277.292969 226 Z M 277.292969 226 " fill-opacity="1" fill-rule="nonzero"/><path fill="#088ab7" d="M 266.515625 308.691406 L 259.570312 308.691406 C 265.023438 317.523438 270.914062 325.234375 279.574219 327.820312 C 287.765625 330.257812 300.199219 328.496094 304.933594 322.054688 C 309.667969 315.609375 310.109375 303.425781 305.976562 296.429688 C 303.089844 298.417969 300.074219 300.175781 296.921875 301.710938 C 293.773438 303.242188 290.523438 304.527344 287.179688 305.566406 C 283.832031 306.605469 280.429688 307.386719 276.964844 307.910156 C 273.503906 308.4375 270.019531 308.695312 266.515625 308.691406 Z M 266.515625 308.691406 " fill-opacity="1" fill-rule="nonzero"/><path fill="#f7931e" d="M 264.960938 219.089844 C 274.53125 221.53125 286.277344 218.234375 294.238281 210.96875 C 286.113281 207.417969 277.664062 204.996094 268.890625 203.699219 C 266.460938 208.542969 265.152344 213.671875 264.960938 219.089844 Z M 264.960938 219.089844 " fill-opacity="1" fill-rule="nonzero"/><path fill="#29abe2" d="M 288.699219 61.511719 C 288.363281 62.519531 287.996094 63.535156 287.59375 64.5625 C 287.390625 65.078125 287.0625 65.492188 286.601562 65.804688 C 286.144531 66.117188 285.640625 66.277344 285.085938 66.277344 C 284.746094 66.277344 284.417969 66.214844 284.105469 66.085938 C 283.773438 65.953125 283.484375 65.761719 283.230469 65.511719 C 282.976562 65.261719 282.777344 64.972656 282.640625 64.644531 C 282.5 64.316406 282.425781 63.976562 282.421875 63.621094 C 282.417969 63.261719 282.480469 62.917969 282.609375 62.589844 C 290.308594 43.046875 284.132812 29.992188 277.589844 22.488281 C 277.273438 22.121094 276.886719 21.859375 276.433594 21.691406 C 275.980469 21.527344 275.515625 21.480469 275.039062 21.550781 C 274.589844 21.613281 274.1875 21.78125 273.824219 22.054688 C 273.464844 22.328125 273.191406 22.671875 273.011719 23.089844 C 260.96875 50.878906 218.894531 57.246094 217.132812 57.503906 L 216.992188 57.503906 C 216.929688 57.507812 216.867188 57.507812 216.804688 57.503906 L 97.792969 57.503906 C 96.738281 57.507812 95.683594 57.535156 94.628906 57.585938 C 93.578125 57.640625 92.527344 57.71875 91.476562 57.820312 C 90.429688 57.925781 89.382812 58.054688 88.339844 58.210938 C 87.296875 58.367188 86.257812 58.550781 85.226562 58.753906 C 84.191406 58.960938 83.164062 59.195312 82.140625 59.449219 C 81.117188 59.707031 80.101562 59.992188 79.09375 60.296875 C 78.085938 60.605469 77.085938 60.9375 76.09375 61.292969 C 75.101562 61.648438 74.117188 62.027344 73.144531 62.433594 C 72.167969 62.835938 71.207031 63.265625 70.253906 63.714844 C 69.300781 64.167969 68.359375 64.640625 67.429688 65.140625 C 66.5 65.636719 65.582031 66.15625 64.679688 66.699219 C 63.777344 67.242188 62.886719 67.808594 62.007812 68.394531 C 61.132812 68.980469 60.269531 69.589844 59.425781 70.214844 C 58.578125 70.84375 57.746094 71.496094 56.933594 72.164062 C 56.117188 72.832031 55.320312 73.523438 54.539062 74.230469 C 53.757812 74.9375 52.996094 75.667969 52.25 76.414062 C 51.503906 77.160156 50.777344 77.921875 50.070312 78.703125 C 49.363281 79.484375 48.671875 80.285156 48.003906 81.101562 C 47.335938 81.914062 46.6875 82.746094 46.058594 83.59375 C 45.433594 84.441406 44.824219 85.304688 44.238281 86.179688 C 43.652344 87.058594 43.089844 87.949219 42.546875 88.851562 C 42.003906 89.757812 41.484375 90.675781 40.988281 91.605469 C 40.492188 92.535156 40.019531 93.476562 39.566406 94.429688 C 39.117188 95.382812 38.6875 96.347656 38.285156 97.324219 C 37.882812 98.296875 37.5 99.28125 37.144531 100.273438 C 36.792969 101.265625 36.460938 102.269531 36.152344 103.277344 C 35.847656 104.285156 35.566406 105.304688 35.308594 106.324219 C 35.054688 107.347656 34.820312 108.378906 34.617188 109.414062 C 34.410156 110.445312 34.230469 111.484375 34.074219 112.527344 C 33.917969 113.574219 33.789062 114.617188 33.683594 115.667969 C 33.582031 116.71875 33.503906 117.769531 33.449219 118.824219 C 33.398438 119.875 33.371094 120.929688 33.371094 121.984375 L 33.371094 238.871094 C 33.371094 239.925781 33.398438 240.980469 33.453125 242.035156 C 33.503906 243.085938 33.585938 244.136719 33.6875 245.1875 C 33.792969 246.234375 33.921875 247.28125 34.078125 248.324219 C 34.234375 249.367188 34.414062 250.40625 34.621094 251.441406 C 34.828125 252.472656 35.0625 253.503906 35.316406 254.523438 C 35.574219 255.546875 35.855469 256.5625 36.164062 257.570312 C 36.46875 258.582031 36.800781 259.582031 37.15625 260.574219 C 37.511719 261.566406 37.894531 262.550781 38.296875 263.523438 C 38.699219 264.496094 39.128906 265.460938 39.578125 266.414062 C 40.03125 267.367188 40.503906 268.308594 41.003906 269.238281 C 41.5 270.167969 42.019531 271.082031 42.5625 271.988281 C 43.101562 272.890625 43.667969 273.78125 44.253906 274.65625 C 44.839844 275.535156 45.445312 276.394531 46.074219 277.242188 C 46.703125 278.089844 47.351562 278.921875 48.019531 279.734375 C 48.6875 280.550781 49.375 281.347656 50.085938 282.128906 C 50.792969 282.910156 51.519531 283.671875 52.265625 284.417969 C 53.007812 285.164062 53.773438 285.890625 54.554688 286.597656 C 55.332031 287.308594 56.132812 287.996094 56.945312 288.664062 C 57.761719 289.332031 58.589844 289.980469 59.4375 290.609375 C 60.285156 291.238281 61.144531 291.847656 62.023438 292.433594 C 62.898438 293.019531 63.789062 293.582031 64.691406 294.125 C 65.59375 294.667969 66.511719 295.1875 67.441406 295.683594 C 68.371094 296.179688 69.3125 296.65625 70.261719 297.105469 C 71.214844 297.558594 72.179688 297.984375 73.152344 298.390625 C 74.125 298.792969 75.109375 299.171875 76.101562 299.527344 C 77.09375 299.882812 78.09375 300.214844 79.101562 300.523438 C 80.109375 300.828125 81.125 301.109375 82.148438 301.367188 C 83.167969 301.625 84.195312 301.855469 85.230469 302.0625 C 86.261719 302.269531 87.300781 302.449219 88.34375 302.605469 C 89.386719 302.761719 90.429688 302.890625 91.480469 302.996094 C 92.527344 303.101562 93.578125 303.179688 94.632812 303.230469 C 95.683594 303.285156 96.738281 303.3125 97.792969 303.3125 L 135.234375 303.3125 C 130.179688 293.992188 125.925781 284.316406 122.472656 274.292969 C 119.019531 264.265625 116.414062 254.027344 114.65625 243.570312 C 114.628906 243.230469 114.660156 242.898438 114.757812 242.574219 C 114.855469 242.25 115.007812 241.953125 115.214844 241.683594 C 115.421875 241.414062 115.671875 241.195312 115.960938 241.019531 C 116.253906 240.847656 116.566406 240.730469 116.902344 240.675781 C 117.234375 240.617188 117.570312 240.625 117.902344 240.691406 C 118.234375 240.761719 118.539062 240.886719 118.824219 241.074219 C 119.109375 241.257812 119.351562 241.488281 119.550781 241.761719 C 119.746094 242.039062 119.886719 242.339844 119.972656 242.667969 C 121.804688 253.578125 124.585938 264.238281 128.3125 274.652344 C 132.039062 285.066406 136.652344 295.070312 142.15625 304.664062 C 144.128906 308.132812 146.253906 311.589844 148.464844 314.933594 C 153.957031 323.246094 161.664062 333.382812 172.519531 338.027344 C 181.847656 342.011719 195.109375 340.839844 201.140625 331.996094 C 205.113281 326.167969 205.324219 318.386719 204.945312 310.84375 C 204.875 309.296875 204.773438 307.75 204.660156 306.203125 C 203.832031 294.820312 202.050781 283.59375 199.3125 272.515625 C 196.570312 261.4375 192.914062 250.671875 188.34375 240.21875 C 188.160156 239.886719 188.050781 239.53125 188.019531 239.152344 C 187.984375 238.773438 188.03125 238.402344 188.152344 238.042969 C 188.273438 237.679688 188.464844 237.359375 188.722656 237.082031 C 188.980469 236.800781 189.28125 236.585938 189.628906 236.433594 C 189.980469 236.28125 190.34375 236.203125 190.722656 236.207031 C 191.105469 236.207031 191.46875 236.285156 191.816406 236.441406 C 192.164062 236.59375 192.464844 236.8125 192.71875 237.09375 C 192.972656 237.378906 193.164062 237.699219 193.28125 238.058594 C 197.808594 248.410156 201.460938 259.058594 204.234375 270.003906 C 207.011719 280.953125 208.875 292.054688 209.828125 303.3125 L 266.515625 303.3125 C 267.570312 303.3125 268.625 303.285156 269.675781 303.230469 C 270.730469 303.179688 271.78125 303.101562 272.828125 302.996094 C 273.875 302.890625 274.921875 302.761719 275.964844 302.605469 C 277.007812 302.449219 278.042969 302.269531 279.078125 302.0625 C 280.113281 301.855469 281.140625 301.625 282.160156 301.367188 C 283.183594 301.109375 284.199219 300.828125 285.207031 300.523438 C 286.214844 300.214844 287.214844 299.882812 288.207031 299.527344 C 289.199219 299.171875 290.183594 298.792969 291.15625 298.390625 C 292.128906 297.984375 293.09375 297.558594 294.042969 297.105469 C 294.996094 296.65625 295.9375 296.179688 296.867188 295.683594 C 297.796875 295.1875 298.710938 294.667969 299.617188 294.125 C 300.519531 293.582031 301.410156 293.019531 302.285156 292.433594 C 303.164062 291.847656 304.023438 291.238281 304.871094 290.609375 C 305.714844 289.980469 306.546875 289.332031 307.363281 288.664062 C 308.175781 287.996094 308.972656 287.308594 309.753906 286.597656 C 310.535156 285.890625 311.300781 285.164062 312.042969 284.417969 C 312.789062 283.671875 313.515625 282.910156 314.222656 282.128906 C 314.933594 281.347656 315.621094 280.550781 316.289062 279.734375 C 316.957031 278.921875 317.605469 278.089844 318.234375 277.242188 C 318.863281 276.394531 319.46875 275.535156 320.054688 274.65625 C 320.640625 273.78125 321.203125 272.890625 321.746094 271.988281 C 322.289062 271.082031 322.808594 270.167969 323.304688 269.238281 C 323.804688 268.308594 324.277344 267.367188 324.730469 266.414062 C 325.179688 265.460938 325.605469 264.496094 326.011719 263.523438 C 326.414062 262.550781 326.796875 261.566406 327.152344 260.574219 C 327.507812 259.582031 327.839844 258.582031 328.144531 257.570312 C 328.453125 256.5625 328.734375 255.546875 328.992188 254.523438 C 329.246094 253.503906 329.480469 252.472656 329.6875 251.441406 C 329.890625 250.40625 330.074219 249.367188 330.230469 248.324219 C 330.386719 247.28125 330.515625 246.234375 330.621094 245.1875 C 330.722656 244.136719 330.800781 243.085938 330.855469 242.035156 C 330.910156 240.980469 330.9375 239.925781 330.9375 238.871094 L 330.9375 121.984375 C 330.9375 93.640625 314.402344 70.058594 288.699219 61.511719 Z M 300.875 211.949219 C 298.546875 214.589844 295.917969 216.875 292.976562 218.808594 C 290.039062 220.742188 286.894531 222.257812 283.550781 223.347656 C 289.117188 227.09375 291.050781 231.671875 293.265625 238.160156 C 293.324219 238.34375 293.367188 238.53125 293.386719 238.726562 C 293.410156 238.917969 293.410156 239.109375 293.390625 239.300781 C 293.367188 239.496094 293.328125 239.683594 293.269531 239.867188 C 293.207031 240.050781 293.128906 240.226562 293.03125 240.394531 C 292.933594 240.558594 292.816406 240.714844 292.6875 240.855469 C 292.554688 241 292.410156 241.125 292.25 241.234375 C 292.09375 241.347656 291.925781 241.441406 291.746094 241.515625 C 291.570312 241.589844 291.382812 241.644531 291.195312 241.679688 C 290.253906 241.855469 289.375 242.03125 288.535156 242.203125 C 286.265625 242.742188 283.960938 243.054688 281.628906 243.136719 C 280.058594 243.125 278.527344 242.886719 277.027344 242.421875 C 275.53125 241.953125 274.132812 241.277344 272.835938 240.394531 C 271.230469 239.367188 269.734375 238.203125 268.34375 236.898438 C 266.953125 235.597656 265.691406 234.179688 264.5625 232.644531 C 263.429688 231.113281 262.449219 229.488281 261.617188 227.773438 C 260.785156 226.058594 260.117188 224.28125 259.609375 222.445312 C 259.507812 222.023438 259.507812 221.601562 259.609375 221.179688 C 259.609375 221.179688 259.609375 221.179688 259.609375 221.140625 C 259.546875 217.347656 259.980469 213.617188 260.914062 209.941406 C 261.847656 206.265625 263.25 202.78125 265.117188 199.480469 C 265.386719 199 265.769531 198.636719 266.261719 198.390625 C 266.753906 198.144531 267.277344 198.054688 267.820312 198.128906 C 279.097656 199.578125 289.84375 202.792969 300.0625 207.773438 C 300.246094 207.867188 300.417969 207.976562 300.574219 208.109375 C 300.730469 208.242188 300.871094 208.386719 300.996094 208.550781 C 301.121094 208.714844 301.222656 208.890625 301.308594 209.078125 C 301.390625 209.265625 301.453125 209.460938 301.492188 209.664062 C 301.535156 209.863281 301.550781 210.066406 301.542969 210.273438 C 301.535156 210.476562 301.507812 210.679688 301.457031 210.878906 C 301.402344 211.078125 301.328125 211.265625 301.234375 211.449219 C 301.136719 211.632812 301.023438 211.800781 300.886719 211.957031 Z M 300.875 211.949219 " fill-opacity="1" fill-rule="nonzero"/><path fill="#29abe2" d="M 300.015625 207.765625 C 289.796875 202.785156 279.050781 199.570312 267.773438 198.121094 C 267.226562 198.050781 266.707031 198.136719 266.214844 198.382812 C 265.722656 198.628906 265.339844 198.996094 265.070312 199.472656 C 263.203125 202.773438 261.800781 206.261719 260.867188 209.933594 C 259.933594 213.609375 259.5 217.34375 259.5625 221.132812 C 259.5625 221.132812 259.5625 221.132812 259.5625 221.171875 C 259.460938 221.59375 259.460938 222.015625 259.5625 222.4375 C 260.070312 224.28125 260.742188 226.0625 261.574219 227.78125 C 262.410156 229.5 263.394531 231.128906 264.527344 232.667969 C 265.664062 234.203125 266.929688 235.625 268.324219 236.929688 C 269.722656 238.234375 271.222656 239.402344 272.835938 240.429688 C 274.132812 241.3125 275.53125 241.988281 277.027344 242.453125 C 278.527344 242.921875 280.058594 243.160156 281.628906 243.171875 C 283.949219 243.085938 286.242188 242.773438 288.5 242.234375 C 289.339844 242.066406 290.21875 241.890625 291.160156 241.714844 C 291.351562 241.679688 291.535156 241.625 291.714844 241.550781 C 291.890625 241.472656 292.058594 241.382812 292.21875 241.269531 C 292.375 241.160156 292.519531 241.03125 292.652344 240.890625 C 292.785156 240.746094 292.898438 240.59375 292.996094 240.425781 C 293.09375 240.257812 293.171875 240.085938 293.234375 239.902344 C 293.292969 239.71875 293.335938 239.527344 293.355469 239.335938 C 293.375 239.144531 293.375 238.953125 293.355469 238.757812 C 293.332031 238.566406 293.292969 238.378906 293.230469 238.195312 C 291.019531 231.703125 289.082031 227.128906 283.515625 223.378906 C 286.871094 222.289062 290.019531 220.773438 292.964844 218.832031 C 295.910156 216.890625 298.546875 214.597656 300.875 211.949219 C 301.007812 211.792969 301.125 211.625 301.21875 211.441406 C 301.316406 211.261719 301.390625 211.070312 301.441406 210.871094 C 301.492188 210.671875 301.523438 210.472656 301.53125 210.265625 C 301.535156 210.0625 301.519531 209.855469 301.480469 209.65625 C 301.441406 209.453125 301.378906 209.261719 301.292969 209.074219 C 301.210938 208.886719 301.105469 208.710938 300.984375 208.546875 C 300.859375 208.382812 300.71875 208.234375 300.558594 208.101562 C 300.402344 207.972656 300.230469 207.859375 300.050781 207.765625 Z M 287.09375 236.984375 C 282.265625 237.953125 279.75 238.386719 275.714844 235.832031 C 273.632812 234.503906 271.78125 232.90625 270.160156 231.039062 C 268.539062 229.171875 267.214844 227.113281 266.191406 224.863281 C 268 225.164062 269.820312 225.316406 271.652344 225.316406 C 273.167969 225.308594 274.679688 225.210938 276.183594 225.019531 C 276.457031 225.457031 276.828125 225.785156 277.292969 226.011719 C 283.023438 228.738281 285.003906 231.460938 287.09375 236.984375 Z M 264.960938 219.089844 C 265.15625 213.683594 266.464844 208.566406 268.890625 203.730469 C 277.664062 205.027344 286.113281 207.453125 294.238281 211 C 286.277344 218.234375 274.53125 221.53125 264.960938 219.089844 Z M 264.960938 219.089844 " fill-opacity="1" fill-rule="nonzero"/><path fill="#088ab7" d="M 90.960938 57.898438 C 89.003906 58.109375 87.0625 58.410156 85.136719 58.796875 C 83.207031 59.183594 81.300781 59.660156 79.417969 60.222656 C 77.535156 60.785156 75.679688 61.433594 73.855469 62.167969 C 72.027344 62.898438 70.242188 63.714844 68.492188 64.609375 C 66.742188 65.507812 65.035156 66.480469 63.375 67.53125 C 61.710938 68.585938 60.101562 69.710938 58.542969 70.910156 C 56.984375 72.109375 55.484375 73.378906 54.042969 74.714844 C 52.597656 76.050781 51.21875 77.453125 49.90625 78.914062 C 48.589844 80.378906 47.347656 81.898438 46.171875 83.472656 C 44.996094 85.050781 43.894531 86.679688 42.867188 88.355469 C 41.839844 90.035156 40.890625 91.753906 40.023438 93.519531 C 39.152344 95.285156 38.363281 97.085938 37.660156 98.921875 C 36.953125 100.757812 36.335938 102.621094 35.800781 104.515625 C 35.265625 106.410156 34.820312 108.324219 34.460938 110.257812 C 34.097656 112.191406 33.828125 114.136719 33.648438 116.097656 C 33.464844 118.054688 33.375 120.019531 33.371094 121.984375 L 33.371094 238.871094 C 33.371094 239.925781 33.398438 240.980469 33.453125 242.035156 C 33.503906 243.085938 33.585938 244.136719 33.6875 245.1875 C 33.792969 246.234375 33.921875 247.28125 34.078125 248.324219 C 34.234375 249.367188 34.414062 250.40625 34.621094 251.441406 C 34.828125 252.472656 35.0625 253.503906 35.316406 254.523438 C 35.574219 255.546875 35.855469 256.5625 36.164062 257.570312 C 36.46875 258.582031 36.800781 259.582031 37.15625 260.574219 C 37.511719 261.566406 37.894531 262.550781 38.296875 263.523438 C 38.699219 264.496094 39.128906 265.460938 39.578125 266.414062 C 40.03125 267.367188 40.503906 268.308594 41.003906 269.238281 C 41.5 270.167969 42.019531 271.082031 42.5625 271.988281 C 43.101562 272.890625 43.667969 273.78125 44.253906 274.65625 C 44.839844 275.535156 45.445312 276.394531 46.074219 277.242188 C 46.703125 278.089844 47.351562 278.921875 48.019531 279.734375 C 48.6875 280.550781 49.375 281.347656 50.085938 282.128906 C 50.792969 282.910156 51.519531 283.671875 52.265625 284.417969 C 53.007812 285.164062 53.773438 285.890625 54.554688 286.597656 C 55.332031 287.308594 56.132812 287.996094 56.945312 288.664062 C 57.761719 289.332031 58.589844 289.980469 59.4375 290.609375 C 60.285156 291.238281 61.144531 291.847656 62.023438 292.433594 C 62.898438 293.019531 63.789062 293.582031 64.691406 294.125 C 65.59375 294.667969 66.511719 295.1875 67.441406 295.683594 C 68.371094 296.179688 69.3125 296.65625 70.261719 297.105469 C 71.214844 297.558594 72.179688 297.984375 73.152344 298.390625 C 74.125 298.792969 75.109375 299.171875 76.101562 299.527344 C 77.09375 299.882812 78.09375 300.214844 79.101562 300.523438 C 80.109375 300.828125 81.125 301.109375 82.148438 301.367188 C 83.167969 301.625 84.195312 301.855469 85.230469 302.0625 C 86.261719 302.269531 87.300781 302.449219 88.34375 302.605469 C 89.386719 302.761719 90.429688 302.890625 91.480469 302.996094 C 92.527344 303.101562 93.578125 303.179688 94.632812 303.230469 C 95.683594 303.285156 96.738281 303.3125 97.792969 303.3125 L 135.234375 303.3125 C 130.179688 293.992188 125.925781 284.316406 122.472656 274.292969 C 119.019531 264.265625 116.414062 254.027344 114.65625 243.570312 C 56.453125 171.636719 90.917969 58.039062 90.960938 57.898438 Z M 90.960938 57.898438 " fill-opacity="1" fill-rule="nonzero"/><path fill="#088ab7" d="M 311.480469 284.941406 C 311.035156 285.039062 260.746094 296.050781 208.109375 289.070312 C 208.839844 293.808594 209.421875 298.546875 209.828125 303.285156 L 266.515625 303.285156 C 270.679688 303.289062 274.804688 302.890625 278.890625 302.089844 C 282.972656 301.289062 286.945312 300.105469 290.800781 298.53125 C 294.652344 296.957031 298.320312 295.03125 301.800781 292.742188 C 305.28125 290.457031 308.507812 287.855469 311.480469 284.941406 Z M 311.480469 284.941406 " fill-opacity="1" fill-rule="nonzero"/><path fill="#088ab7" d="M 204.945312 310.816406 C 204.875 309.269531 204.773438 307.726562 204.660156 306.175781 C 204.289062 301.050781 203.707031 295.960938 202.949219 290.90625 C 202.988281 292.789062 202.820312 294.65625 202.449219 296.503906 C 202.074219 298.355469 201.507812 300.140625 200.742188 301.863281 C 199.976562 303.585938 199.03125 305.203125 197.910156 306.71875 C 196.785156 308.230469 195.511719 309.605469 194.085938 310.839844 C 177.59375 324.71875 160.5 311.109375 149.582031 297.800781 C 143.492188 290.367188 138.046875 282.488281 133.253906 274.160156 C 128.457031 265.828125 124.375 257.164062 121 248.164062 C 122.972656 258.089844 125.734375 267.789062 129.285156 277.261719 C 132.832031 286.738281 137.121094 295.863281 142.152344 304.636719 C 144.128906 308.105469 146.253906 311.5625 148.464844 314.90625 C 153.957031 323.21875 161.664062 333.355469 172.519531 338 C 181.847656 341.984375 195.109375 340.816406 201.140625 331.96875 C 205.113281 326.160156 205.324219 318.378906 204.945312 310.816406 Z M 204.945312 310.816406 " fill-opacity="1" fill-rule="nonzero"/><path fill="#83dfff" d="M 330.9375 121.984375 C 330.9375 93.652344 314.410156 70.074219 288.726562 61.527344 C 288.390625 62.53125 288.023438 63.550781 287.621094 64.578125 C 287.4375 65.042969 287.144531 65.429688 286.742188 65.730469 C 286.339844 66.03125 285.890625 66.203125 285.390625 66.25 C 308.492188 78.214844 325.300781 101.179688 330.9375 126.488281 Z M 330.9375 121.984375 " fill-opacity="1" fill-rule="nonzero"/><path fill="#83dfff" d="M 277.589844 22.492188 C 277.273438 22.128906 276.886719 21.863281 276.433594 21.699219 C 275.980469 21.53125 275.515625 21.484375 275.039062 21.558594 C 274.589844 21.621094 274.1875 21.789062 273.824219 22.0625 C 273.464844 22.335938 273.191406 22.679688 273.011719 23.097656 C 271.289062 27.003906 269.015625 30.554688 266.183594 33.75 C 267.304688 33.261719 268.472656 33.046875 269.691406 33.097656 C 270.910156 33.148438 272.058594 33.460938 273.132812 34.039062 C 276.339844 35.8125 278.238281 39.257812 279.558594 42.675781 C 281.664062 48.089844 282.726562 53.898438 283.617188 59.671875 C 289.671875 41.734375 283.800781 29.613281 277.589844 22.492188 Z M 277.589844 22.492188 " fill-opacity="1" fill-rule="nonzero"/><g clip-path="url(#332f522b54)"><path fill="#002b35" d="M 291.484375 55.609375 C 295.496094 37.046875 287.914062 24.476562 282.46875 18.234375 C 281.953125 17.644531 281.375 17.125 280.730469 16.679688 C 280.085938 16.234375 279.394531 15.878906 278.660156 15.609375 C 277.921875 15.339844 277.164062 15.167969 276.382812 15.09375 C 275.605469 15.015625 274.828125 15.039062 274.050781 15.164062 C 273.292969 15.277344 272.5625 15.484375 271.855469 15.785156 C 271.152344 16.085938 270.492188 16.472656 269.886719 16.941406 C 269.277344 17.410156 268.738281 17.945312 268.269531 18.550781 C 267.796875 19.15625 267.410156 19.8125 267.105469 20.515625 C 256.925781 44.003906 219.753906 50.527344 216.484375 51.0625 L 97.792969 51.0625 C 96.632812 51.0625 95.472656 51.09375 94.3125 51.152344 C 93.15625 51.207031 92 51.296875 90.84375 51.410156 C 89.691406 51.523438 88.539062 51.667969 87.394531 51.839844 C 86.246094 52.011719 85.105469 52.210938 83.96875 52.4375 C 82.828125 52.664062 81.699219 52.917969 80.574219 53.203125 C 79.449219 53.484375 78.332031 53.796875 77.222656 54.132812 C 76.113281 54.46875 75.011719 54.835938 73.921875 55.226562 C 72.828125 55.617188 71.746094 56.035156 70.675781 56.480469 C 69.605469 56.925781 68.542969 57.394531 67.496094 57.890625 C 66.449219 58.390625 65.414062 58.910156 64.390625 59.457031 C 63.367188 60.003906 62.359375 60.578125 61.363281 61.175781 C 60.371094 61.773438 59.390625 62.394531 58.425781 63.039062 C 57.460938 63.683594 56.515625 64.351562 55.582031 65.042969 C 54.652344 65.734375 53.738281 66.449219 52.839844 67.183594 C 51.945312 67.917969 51.066406 68.675781 50.207031 69.457031 C 49.347656 70.238281 48.507812 71.035156 47.6875 71.855469 C 46.867188 72.675781 46.070312 73.515625 45.289062 74.378906 C 44.511719 75.238281 43.753906 76.113281 43.015625 77.011719 C 42.28125 77.910156 41.566406 78.824219 40.878906 79.753906 C 40.1875 80.6875 39.519531 81.636719 38.875 82.601562 C 38.230469 83.566406 37.609375 84.542969 37.011719 85.539062 C 36.414062 86.535156 35.84375 87.542969 35.296875 88.566406 C 34.75 89.589844 34.226562 90.625 33.730469 91.675781 C 33.234375 92.722656 32.765625 93.785156 32.320312 94.855469 C 31.875 95.925781 31.457031 97.011719 31.066406 98.101562 C 30.675781 99.195312 30.308594 100.296875 29.972656 101.40625 C 29.636719 102.515625 29.324219 103.632812 29.042969 104.757812 C 28.761719 105.882812 28.503906 107.015625 28.277344 108.15625 C 28.050781 109.292969 27.851562 110.433594 27.679688 111.582031 C 27.511719 112.730469 27.367188 113.882812 27.253906 115.035156 C 27.136719 116.191406 27.050781 117.347656 26.992188 118.507812 C 26.933594 119.664062 26.90625 120.824219 26.902344 121.984375 L 26.902344 238.871094 C 26.90625 240.03125 26.9375 241.191406 26.996094 242.351562 C 27.050781 243.507812 27.140625 244.664062 27.253906 245.820312 C 27.371094 246.972656 27.511719 248.125 27.683594 249.273438 C 27.855469 250.417969 28.054688 251.5625 28.28125 252.699219 C 28.511719 253.835938 28.765625 254.96875 29.046875 256.09375 C 29.332031 257.21875 29.640625 258.335938 29.980469 259.445312 C 30.316406 260.554688 30.683594 261.65625 31.074219 262.75 C 31.464844 263.839844 31.882812 264.921875 32.328125 265.992188 C 32.773438 267.066406 33.242188 268.125 33.738281 269.171875 C 34.234375 270.222656 34.757812 271.257812 35.304688 272.28125 C 35.851562 273.304688 36.425781 274.3125 37.019531 275.304688 C 37.617188 276.300781 38.238281 277.28125 38.882812 278.246094 C 39.527344 279.207031 40.195312 280.15625 40.886719 281.089844 C 41.578125 282.019531 42.292969 282.933594 43.027344 283.832031 C 43.761719 284.726562 44.519531 285.605469 45.300781 286.464844 C 46.078125 287.324219 46.878906 288.164062 47.699219 288.984375 C 48.519531 289.804688 49.359375 290.601562 50.214844 291.382812 C 51.074219 292.160156 51.953125 292.917969 52.851562 293.65625 C 53.746094 294.390625 54.660156 295.105469 55.589844 295.796875 C 56.523438 296.484375 57.46875 297.152344 58.433594 297.800781 C 59.398438 298.445312 60.378906 299.0625 61.371094 299.660156 C 62.367188 300.257812 63.375 300.828125 64.398438 301.375 C 65.417969 301.921875 66.457031 302.445312 67.503906 302.941406 C 68.550781 303.4375 69.609375 303.910156 70.683594 304.351562 C 71.753906 304.796875 72.835938 305.214844 73.925781 305.605469 C 75.015625 305.996094 76.117188 306.363281 77.226562 306.699219 C 78.335938 307.035156 79.453125 307.347656 80.578125 307.628906 C 81.703125 307.914062 82.832031 308.167969 83.96875 308.394531 C 85.109375 308.621094 86.25 308.820312 87.394531 308.992188 C 88.542969 309.164062 89.695312 309.304688 90.847656 309.421875 C 92 309.535156 93.15625 309.621094 94.316406 309.679688 C 95.472656 309.738281 96.632812 309.769531 97.792969 309.769531 L 137.636719 309.769531 C 139.359375 312.71875 141.1875 315.644531 143.046875 318.492188 C 149.039062 327.5625 157.515625 338.648438 169.957031 343.96875 C 174.304688 345.785156 178.835938 346.6875 183.546875 346.675781 C 192.28125 346.675781 201.136719 343.40625 206.464844 335.625 C 211.511719 328.210938 211.816406 319.167969 211.390625 310.511719 L 211.351562 309.753906 L 252.613281 309.753906 C 258.925781 320.253906 266.144531 330.5625 277.691406 334.003906 C 280.84375 334.921875 284.058594 335.371094 287.339844 335.359375 C 296.050781 335.359375 305.339844 332.386719 310.109375 325.882812 C 316.332031 317.417969 316.941406 302.6875 311.683594 293.429688 C 313.6875 291.777344 315.59375 290.015625 317.40625 288.148438 C 319.214844 286.285156 320.917969 284.324219 322.511719 282.273438 C 324.105469 280.21875 325.582031 278.085938 326.941406 275.871094 C 328.300781 273.652344 329.535156 271.371094 330.640625 269.019531 C 331.75 266.667969 332.722656 264.261719 333.566406 261.800781 C 334.410156 259.34375 335.113281 256.84375 335.683594 254.308594 C 336.25 251.773438 336.675781 249.210938 336.960938 246.628906 C 337.246094 244.042969 337.390625 241.453125 337.390625 238.851562 L 337.390625 121.984375 C 337.402344 91.054688 319.449219 65.242188 291.484375 55.609375 Z M 304.0625 321.417969 C 299.722656 327.320312 287.71875 329.117188 279.875 326.785156 C 272.035156 324.449219 266.570312 317.714844 261.515625 309.769531 L 266.515625 309.769531 C 269.976562 309.773438 273.414062 309.519531 276.835938 309.015625 C 280.257812 308.511719 283.625 307.761719 286.9375 306.757812 C 290.25 305.757812 293.46875 304.523438 296.597656 303.046875 C 299.726562 301.570312 302.730469 299.875 305.609375 297.957031 C 308.871094 304.726562 308.316406 315.664062 304.0625 321.417969 Z M 266.515625 302.222656 L 210.816406 302.222656 C 209.820312 291.078125 207.933594 280.085938 205.15625 269.246094 C 202.382812 258.410156 198.753906 247.863281 194.269531 237.613281 C 194.175781 237.378906 194.058594 237.15625 193.921875 236.945312 C 193.78125 236.734375 193.621094 236.539062 193.445312 236.359375 C 193.265625 236.179688 193.074219 236.019531 192.863281 235.878906 C 192.652344 235.738281 192.429688 235.621094 192.195312 235.523438 C 191.960938 235.429688 191.722656 235.359375 191.472656 235.308594 C 191.222656 235.261719 190.972656 235.242188 190.722656 235.242188 C 190.46875 235.246094 190.21875 235.273438 189.972656 235.328125 C 189.726562 235.382812 189.484375 235.457031 189.253906 235.558594 C 189.023438 235.660156 188.804688 235.785156 188.597656 235.929688 C 188.390625 236.074219 188.199219 236.238281 188.027344 236.421875 C 187.851562 236.605469 187.699219 236.804688 187.566406 237.019531 C 187.429688 237.234375 187.320312 237.460938 187.230469 237.699219 C 187.140625 237.933594 187.078125 238.175781 187.039062 238.425781 C 187 238.675781 186.984375 238.929688 186.996094 239.179688 C 187.007812 239.433594 187.042969 239.683594 187.101562 239.929688 C 187.164062 240.171875 187.246094 240.410156 187.355469 240.636719 C 191.90625 251.039062 195.546875 261.75 198.273438 272.773438 C 200.996094 283.792969 202.769531 294.964844 203.589844 306.289062 C 203.707031 307.832031 203.800781 309.363281 203.875 310.90625 C 204.242188 318.257812 204.050781 325.828125 200.261719 331.394531 C 194.539062 339.785156 181.882812 340.867188 172.953125 337.039062 C 162.347656 332.476562 154.757812 322.519531 149.34375 314.332031 C 147.148438 311.007812 145.035156 307.5625 143.066406 304.125 C 137.601562 294.582031 133.015625 284.628906 129.316406 274.269531 C 125.613281 263.910156 122.855469 253.308594 121.035156 242.460938 C 121 242.207031 120.941406 241.964844 120.859375 241.726562 C 120.777344 241.484375 120.667969 241.257812 120.539062 241.039062 C 120.410156 240.824219 120.261719 240.621094 120.09375 240.433594 C 119.921875 240.246094 119.734375 240.078125 119.53125 239.925781 C 119.328125 239.777344 119.113281 239.648438 118.882812 239.542969 C 118.652344 239.4375 118.414062 239.351562 118.167969 239.292969 C 117.921875 239.234375 117.675781 239.203125 117.421875 239.195312 C 117.167969 239.183594 116.917969 239.203125 116.667969 239.242188 C 116.417969 239.285156 116.175781 239.351562 115.941406 239.441406 C 115.703125 239.535156 115.480469 239.648438 115.265625 239.78125 C 115.054688 239.917969 114.855469 240.074219 114.671875 240.25 C 114.492188 240.425781 114.328125 240.617188 114.1875 240.828125 C 114.042969 241.035156 113.921875 241.253906 113.820312 241.488281 C 113.722656 241.71875 113.648438 241.960938 113.597656 242.207031 C 113.546875 242.457031 113.519531 242.707031 113.519531 242.960938 C 113.519531 243.210938 113.542969 243.464844 113.59375 243.710938 C 115.3125 253.929688 117.835938 263.945312 121.164062 273.753906 C 124.496094 283.566406 128.585938 293.050781 133.441406 302.203125 L 97.792969 302.203125 C 95.71875 302.199219 93.648438 302.097656 91.585938 301.890625 C 89.523438 301.6875 87.472656 301.378906 85.441406 300.972656 C 83.40625 300.566406 81.398438 300.0625 79.414062 299.457031 C 77.429688 298.855469 75.480469 298.15625 73.5625 297.359375 C 71.648438 296.566406 69.777344 295.679688 67.949219 294.699219 C 66.121094 293.722656 64.34375 292.65625 62.617188 291.503906 C 60.894531 290.351562 59.230469 289.117188 57.628906 287.800781 C 56.027344 286.484375 54.492188 285.089844 53.023438 283.625 C 51.558594 282.15625 50.167969 280.621094 48.851562 279.019531 C 47.535156 277.414062 46.300781 275.75 45.148438 274.027344 C 43.996094 272.300781 42.929688 270.523438 41.949219 268.695312 C 40.972656 266.867188 40.085938 264.992188 39.289062 263.078125 C 38.496094 261.160156 37.796875 259.210938 37.191406 257.226562 C 36.589844 255.242188 36.082031 253.230469 35.675781 251.195312 C 35.269531 249.160156 34.964844 247.113281 34.757812 245.046875 C 34.554688 242.984375 34.449219 240.914062 34.445312 238.839844 L 34.445312 121.984375 C 34.449219 119.910156 34.554688 117.839844 34.757812 115.777344 C 34.964844 113.710938 35.269531 111.664062 35.675781 109.628906 C 36.082031 107.59375 36.589844 105.582031 37.191406 103.597656 C 37.796875 101.613281 38.496094 99.664062 39.289062 97.746094 C 40.085938 95.832031 40.972656 93.957031 41.949219 92.128906 C 42.929688 90.300781 43.996094 88.523438 45.148438 86.796875 C 46.300781 85.074219 47.535156 83.410156 48.851562 81.804688 C 50.167969 80.203125 51.558594 78.667969 53.023438 77.199219 C 54.492188 75.734375 56.027344 74.339844 57.628906 73.023438 C 59.230469 71.707031 60.894531 70.472656 62.617188 69.320312 C 64.34375 68.167969 66.121094 67.101562 67.949219 66.125 C 69.777344 65.144531 71.648438 64.257812 73.5625 63.464844 C 75.480469 62.667969 77.429688 61.96875 79.414062 61.367188 C 81.398438 60.761719 83.40625 60.257812 85.441406 59.851562 C 87.472656 59.445312 89.523438 59.136719 91.585938 58.933594 C 93.648438 58.726562 95.71875 58.625 97.792969 58.621094 L 216.777344 58.621094 C 216.871094 58.621094 216.957031 58.621094 217.054688 58.621094 C 217.148438 58.621094 217.230469 58.621094 217.316406 58.621094 C 219.125 58.363281 261.746094 51.90625 274.027344 23.578125 C 274.128906 23.332031 274.285156 23.128906 274.496094 22.96875 C 274.707031 22.808594 274.945312 22.710938 275.210938 22.675781 C 275.503906 22.628906 275.789062 22.65625 276.070312 22.757812 C 276.347656 22.859375 276.585938 23.023438 276.777344 23.25 C 283.125 30.535156 289.105469 43.210938 281.609375 62.25 C 281.425781 62.714844 281.335938 63.199219 281.34375 63.699219 C 281.355469 64.199219 281.457031 64.679688 281.65625 65.136719 C 281.855469 65.597656 282.136719 66 282.496094 66.347656 C 282.855469 66.695312 283.265625 66.960938 283.734375 67.144531 C 284.167969 67.316406 284.617188 67.40625 285.085938 67.40625 C 285.464844 67.40625 285.835938 67.351562 286.195312 67.242188 C 286.558594 67.128906 286.894531 66.96875 287.210938 66.753906 C 287.523438 66.542969 287.796875 66.285156 288.035156 65.992188 C 288.269531 65.695312 288.457031 65.371094 288.597656 65.019531 C 288.875 64.339844 289.136719 63.617188 289.382812 62.933594 C 311.988281 70.886719 327.140625 90.84375 329.503906 115.296875 C 327.308594 113.609375 324.910156 112.289062 322.304688 111.339844 C 319.253906 110.265625 316.113281 109.75 312.878906 109.796875 C 309.644531 109.839844 306.519531 110.441406 303.5 111.597656 C 303.0625 111.800781 302.679688 112.078125 302.351562 112.429688 C 302.023438 112.78125 301.769531 113.179688 301.59375 113.625 C 301.417969 114.074219 301.328125 114.539062 301.328125 115.019531 C 301.328125 115.5 301.417969 115.964844 301.597656 116.410156 C 301.773438 116.859375 302.027344 117.257812 302.359375 117.609375 C 302.6875 117.957031 303.070312 118.234375 303.507812 118.4375 C 303.941406 118.640625 304.402344 118.757812 304.882812 118.785156 C 305.359375 118.8125 305.828125 118.753906 306.285156 118.601562 C 307.34375 118.1875 308.425781 117.871094 309.539062 117.652344 C 310.648438 117.429688 311.773438 117.308594 312.90625 117.285156 C 314.039062 117.261719 315.164062 117.335938 316.285156 117.511719 C 317.40625 117.6875 318.5 117.960938 319.574219 118.332031 C 320.644531 118.699219 321.675781 119.160156 322.667969 119.710938 C 323.660156 120.261719 324.59375 120.894531 325.472656 121.609375 C 326.351562 122.328125 327.164062 123.113281 327.902344 123.972656 C 328.644531 124.832031 329.304688 125.75 329.882812 126.722656 L 329.882812 238.859375 C 329.878906 240.933594 329.773438 243.003906 329.570312 245.070312 C 329.363281 247.132812 329.058594 249.183594 328.652344 251.21875 C 328.246094 253.253906 327.738281 255.265625 327.136719 257.25 C 326.53125 259.234375 325.832031 261.1875 325.039062 263.101562 C 324.242188 265.019531 323.355469 266.894531 322.375 268.722656 C 321.398438 270.550781 320.332031 272.328125 319.179688 274.054688 C 318.023438 275.78125 316.789062 277.445312 315.472656 279.046875 C 314.15625 280.652344 312.765625 282.1875 311.296875 283.652344 C 309.832031 285.121094 308.296875 286.511719 306.691406 287.828125 C 305.089844 289.144531 303.425781 290.378906 301.699219 291.53125 C 299.976562 292.683594 298.199219 293.75 296.371094 294.730469 C 294.539062 295.707031 292.667969 296.59375 290.75 297.390625 C 288.835938 298.183594 286.882812 298.882812 284.898438 299.484375 C 282.914062 300.089844 280.90625 300.59375 278.871094 301 C 276.835938 301.402344 274.789062 301.710938 272.722656 301.914062 C 270.660156 302.117188 268.589844 302.222656 266.515625 302.222656 Z M 266.515625 302.222656 " fill-opacity="1" fill-rule="nonzero"/></g><path fill="#002b35" d="M 252.59375 170.535156 C 252.59375 171.394531 252.554688 172.25 252.46875 173.105469 C 252.382812 173.960938 252.257812 174.808594 252.089844 175.652344 C 251.921875 176.496094 251.714844 177.328125 251.464844 178.148438 C 251.214844 178.972656 250.925781 179.777344 250.597656 180.574219 C 250.269531 181.367188 249.902344 182.140625 249.5 182.898438 C 249.09375 183.65625 248.652344 184.394531 248.175781 185.109375 C 247.699219 185.824219 247.1875 186.511719 246.644531 187.175781 C 246.097656 187.839844 245.523438 188.476562 244.914062 189.082031 C 244.308594 189.691406 243.671875 190.265625 243.007812 190.8125 C 242.34375 191.359375 241.65625 191.867188 240.941406 192.347656 C 240.226562 192.824219 239.492188 193.265625 238.734375 193.667969 C 237.976562 194.074219 237.203125 194.441406 236.410156 194.769531 C 235.617188 195.097656 234.808594 195.386719 233.984375 195.636719 C 233.164062 195.886719 232.332031 196.09375 231.488281 196.261719 C 230.648438 196.429688 229.800781 196.558594 228.945312 196.640625 C 228.089844 196.726562 227.234375 196.765625 226.375 196.765625 C 225.515625 196.765625 224.660156 196.726562 223.804688 196.640625 C 222.949219 196.558594 222.101562 196.429688 221.257812 196.261719 C 220.417969 196.09375 219.585938 195.886719 218.761719 195.636719 C 217.941406 195.386719 217.132812 195.097656 216.339844 194.769531 C 215.546875 194.441406 214.773438 194.074219 214.015625 193.667969 C 213.257812 193.265625 212.523438 192.824219 211.808594 192.347656 C 211.09375 191.867188 210.40625 191.359375 209.742188 190.8125 C 209.078125 190.265625 208.441406 189.691406 207.835938 189.082031 C 207.226562 188.476562 206.652344 187.839844 206.105469 187.175781 C 205.5625 186.511719 205.050781 185.824219 204.574219 185.109375 C 204.097656 184.394531 203.65625 183.65625 203.25 182.898438 C 202.847656 182.140625 202.480469 181.367188 202.152344 180.574219 C 201.820312 179.777344 201.53125 178.972656 201.285156 178.148438 C 201.035156 177.328125 200.828125 176.496094 200.660156 175.652344 C 200.492188 174.808594 200.367188 173.960938 200.28125 173.105469 C 200.195312 172.25 200.15625 171.394531 200.15625 170.535156 C 200.15625 169.675781 200.195312 168.816406 200.28125 167.960938 C 200.367188 167.109375 200.492188 166.257812 200.660156 165.414062 C 200.828125 164.574219 201.035156 163.742188 201.285156 162.917969 C 201.53125 162.097656 201.820312 161.289062 202.152344 160.496094 C 202.480469 159.699219 202.847656 158.925781 203.25 158.167969 C 203.65625 157.410156 204.097656 156.671875 204.574219 155.960938 C 205.050781 155.246094 205.5625 154.554688 206.105469 153.890625 C 206.652344 153.226562 207.226562 152.589844 207.835938 151.984375 C 208.441406 151.375 209.078125 150.800781 209.742188 150.253906 C 210.40625 149.710938 211.09375 149.199219 211.808594 148.722656 C 212.523438 148.246094 213.257812 147.804688 214.015625 147.398438 C 214.773438 146.992188 215.546875 146.625 216.339844 146.296875 C 217.132812 145.96875 217.941406 145.679688 218.761719 145.429688 C 219.585938 145.179688 220.417969 144.972656 221.257812 144.804688 C 222.101562 144.636719 222.949219 144.511719 223.804688 144.425781 C 224.660156 144.34375 225.515625 144.300781 226.375 144.300781 C 227.234375 144.300781 228.089844 144.34375 228.945312 144.425781 C 229.800781 144.511719 230.648438 144.636719 231.488281 144.804688 C 232.332031 144.972656 233.164062 145.179688 233.984375 145.429688 C 234.808594 145.679688 235.617188 145.96875 236.410156 146.296875 C 237.203125 146.625 237.976562 146.992188 238.734375 147.398438 C 239.492188 147.804688 240.226562 148.246094 240.941406 148.722656 C 241.65625 149.199219 242.34375 149.710938 243.007812 150.253906 C 243.671875 150.800781 244.308594 151.375 244.914062 151.984375 C 245.523438 152.589844 246.097656 153.226562 246.644531 153.890625 C 247.1875 154.554688 247.699219 155.246094 248.175781 155.960938 C 248.652344 156.671875 249.09375 157.410156 249.5 158.167969 C 249.902344 158.925781 250.269531 159.699219 250.597656 160.496094 C 250.925781 161.289062 251.214844 162.097656 251.464844 162.917969 C 251.714844 163.742188 251.921875 164.574219 252.089844 165.414062 C 252.257812 166.257812 252.382812 167.109375 252.46875 167.960938 C 252.554688 168.816406 252.59375 169.675781 252.59375 170.535156 Z M 252.59375 170.535156 " fill-opacity="1" fill-rule="nonzero"/><path fill="#002b35" d="M 327.257812 170.535156 C 327.257812 171.394531 327.214844 172.25 327.128906 173.105469 C 327.046875 173.960938 326.921875 174.808594 326.753906 175.652344 C 326.585938 176.496094 326.378906 177.328125 326.128906 178.148438 C 325.878906 178.972656 325.589844 179.777344 325.261719 180.574219 C 324.933594 181.367188 324.566406 182.140625 324.160156 182.898438 C 323.757812 183.65625 323.316406 184.394531 322.839844 185.109375 C 322.359375 185.824219 321.851562 186.511719 321.304688 187.175781 C 320.761719 187.839844 320.183594 188.476562 319.578125 189.082031 C 318.96875 189.691406 318.335938 190.265625 317.671875 190.8125 C 317.007812 191.359375 316.316406 191.867188 315.605469 192.347656 C 314.890625 192.824219 314.152344 193.265625 313.398438 193.667969 C 312.640625 194.074219 311.863281 194.441406 311.070312 194.769531 C 310.277344 195.097656 309.46875 195.386719 308.648438 195.636719 C 307.828125 195.886719 306.996094 196.09375 306.152344 196.261719 C 305.308594 196.429688 304.460938 196.558594 303.605469 196.640625 C 302.753906 196.726562 301.894531 196.765625 301.035156 196.765625 C 300.179688 196.765625 299.320312 196.726562 298.46875 196.640625 C 297.613281 196.558594 296.765625 196.429688 295.921875 196.261719 C 295.078125 196.09375 294.246094 195.886719 293.425781 195.636719 C 292.605469 195.386719 291.796875 195.097656 291.003906 194.769531 C 290.210938 194.441406 289.433594 194.074219 288.675781 193.667969 C 287.917969 193.265625 287.183594 192.824219 286.46875 192.347656 C 285.757812 191.867188 285.066406 191.359375 284.402344 190.8125 C 283.738281 190.265625 283.105469 189.691406 282.496094 189.082031 C 281.890625 188.476562 281.3125 187.839844 280.769531 187.175781 C 280.222656 186.511719 279.714844 185.824219 279.234375 185.109375 C 278.757812 184.394531 278.316406 183.65625 277.914062 182.898438 C 277.507812 182.140625 277.140625 181.367188 276.8125 180.574219 C 276.484375 179.777344 276.195312 178.972656 275.945312 178.148438 C 275.695312 177.328125 275.488281 176.496094 275.320312 175.652344 C 275.152344 174.808594 275.027344 173.960938 274.941406 173.105469 C 274.859375 172.25 274.816406 171.394531 274.816406 170.535156 C 274.816406 169.675781 274.859375 168.816406 274.941406 167.960938 C 275.027344 167.109375 275.152344 166.257812 275.320312 165.414062 C 275.488281 164.574219 275.695312 163.742188 275.945312 162.917969 C 276.195312 162.097656 276.484375 161.289062 276.8125 160.496094 C 277.140625 159.699219 277.507812 158.925781 277.914062 158.167969 C 278.316406 157.410156 278.757812 156.671875 279.234375 155.960938 C 279.714844 155.246094 280.222656 154.554688 280.769531 153.890625 C 281.3125 153.226562 281.890625 152.589844 282.496094 151.984375 C 283.105469 151.375 283.738281 150.800781 284.402344 150.253906 C 285.066406 149.710938 285.757812 149.199219 286.46875 148.722656 C 287.183594 148.246094 287.917969 147.804688 288.675781 147.398438 C 289.433594 146.992188 290.210938 146.625 291.003906 146.296875 C 291.796875 145.96875 292.605469 145.679688 293.425781 145.429688 C 294.246094 145.179688 295.078125 144.972656 295.921875 144.804688 C 296.765625 144.636719 297.613281 144.511719 298.46875 144.425781 C 299.320312 144.34375 300.179688 144.300781 301.035156 144.300781 C 301.894531 144.300781 302.753906 144.34375 303.605469 144.425781 C 304.460938 144.511719 305.308594 144.636719 306.152344 144.804688 C 306.996094 144.972656 307.828125 145.179688 308.648438 145.429688 C 309.46875 145.679688 310.277344 145.96875 311.070312 146.296875 C 311.863281 146.625 312.640625 146.992188 313.398438 147.398438 C 314.152344 147.804688 314.890625 148.246094 315.605469 148.722656 C 316.316406 149.199219 317.007812 149.710938 317.671875 150.253906 C 318.335938 150.800781 318.96875 151.375 319.578125 151.984375 C 320.183594 152.589844 320.761719 153.226562 321.304688 153.890625 C 321.851562 154.554688 322.359375 155.246094 322.839844 155.960938 C 323.316406 156.671875 323.757812 157.410156 324.160156 158.167969 C 324.566406 158.925781 324.933594 159.699219 325.261719 160.496094 C 325.589844 161.289062 325.878906 162.097656 326.128906 162.917969 C 326.378906 163.742188 326.585938 164.574219 326.753906 165.414062 C 326.921875 166.257812 327.046875 167.109375 327.128906 167.960938 C 327.214844 168.816406 327.257812 169.675781 327.257812 170.535156 Z M 327.257812 170.535156 " fill-opacity="1" fill-rule="nonzero"/><path fill="#002b35" d="M 300.496094 206.804688 C 290.171875 201.765625 279.316406 198.515625 267.921875 197.050781 C 267.550781 197 267.175781 197.003906 266.804688 197.066406 C 266.429688 197.125 266.074219 197.238281 265.738281 197.40625 C 265.398438 197.574219 265.089844 197.789062 264.816406 198.050781 C 264.542969 198.308594 264.3125 198.605469 264.128906 198.933594 C 262.21875 202.308594 260.785156 205.875 259.824219 209.632812 C 258.867188 213.390625 258.417969 217.207031 258.480469 221.085938 C 258.378906 221.636719 258.398438 222.1875 258.542969 222.730469 C 259.066406 224.632812 259.761719 226.472656 260.625 228.246094 C 261.488281 230.023438 262.507812 231.703125 263.679688 233.292969 C 264.851562 234.878906 266.160156 236.347656 267.601562 237.695312 C 269.042969 239.042969 270.597656 240.246094 272.261719 241.308594 C 273.644531 242.246094 275.136719 242.960938 276.734375 243.457031 C 278.335938 243.953125 279.96875 244.203125 281.640625 244.210938 C 284.027344 244.128906 286.378906 243.8125 288.699219 243.257812 C 289.53125 243.089844 290.410156 242.914062 291.34375 242.742188 C 291.609375 242.695312 291.867188 242.617188 292.121094 242.511719 C 292.371094 242.410156 292.605469 242.277344 292.828125 242.125 C 293.050781 241.96875 293.253906 241.789062 293.4375 241.589844 C 293.621094 241.390625 293.785156 241.175781 293.921875 240.941406 C 294.058594 240.707031 294.167969 240.460938 294.253906 240.203125 C 294.335938 239.945312 294.394531 239.679688 294.421875 239.410156 C 294.449219 239.140625 294.445312 238.871094 294.414062 238.601562 C 294.386719 238.328125 294.324219 238.066406 294.238281 237.808594 C 292.210938 231.773438 290.355469 227.332031 285.789062 223.664062 C 288.839844 222.503906 291.707031 220.996094 294.390625 219.136719 C 297.074219 217.28125 299.5 215.125 301.660156 212.679688 C 301.847656 212.460938 302.011719 212.226562 302.144531 211.972656 C 302.28125 211.71875 302.382812 211.453125 302.457031 211.171875 C 302.53125 210.894531 302.574219 210.613281 302.582031 210.324219 C 302.589844 210.039062 302.566406 209.753906 302.511719 209.46875 C 302.453125 209.1875 302.367188 208.914062 302.25 208.652344 C 302.128906 208.390625 301.984375 208.144531 301.808594 207.917969 C 301.632812 207.6875 301.4375 207.480469 301.214844 207.300781 C 300.992188 207.117188 300.753906 206.960938 300.496094 206.832031 Z M 276.820312 226.972656 C 281.8125 229.363281 283.761719 231.652344 285.613281 236.171875 C 281.757812 236.917969 279.613281 237.023438 276.285156 234.917969 C 272.808594 232.699219 270.070312 229.78125 268.066406 226.175781 C 269.25 226.304688 270.433594 226.371094 271.625 226.378906 C 272.980469 226.378906 274.335938 226.300781 275.683594 226.148438 C 276.015625 226.496094 276.398438 226.769531 276.832031 226.972656 Z M 266.070312 218.25 C 266.351562 213.585938 267.492188 209.144531 269.5 204.921875 C 277.332031 206.152344 284.914062 208.285156 292.234375 211.324219 C 284.84375 217.34375 274.648438 220.125 266.082031 218.25 Z M 266.070312 218.25 " fill-opacity="1" fill-rule="nonzero"/><path fill="#002b35" d="M 217.558594 118.601562 C 218.019531 118.75 218.488281 118.808594 218.972656 118.773438 C 219.453125 118.742188 219.910156 118.621094 220.347656 118.414062 C 220.78125 118.207031 221.164062 117.925781 221.488281 117.570312 C 221.816406 117.214844 222.066406 116.8125 222.242188 116.363281 C 222.414062 115.910156 222.496094 115.445312 222.492188 114.960938 C 222.484375 114.480469 222.390625 114.015625 222.207031 113.570312 C 222.023438 113.125 221.765625 112.726562 221.429688 112.378906 C 221.09375 112.03125 220.707031 111.761719 220.265625 111.5625 C 219.519531 111.273438 218.761719 111.015625 217.992188 110.796875 C 217.226562 110.574219 216.449219 110.386719 215.660156 110.234375 C 214.875 110.082031 214.085938 109.964844 213.289062 109.882812 C 212.492188 109.800781 211.695312 109.753906 210.894531 109.742188 C 210.09375 109.730469 209.296875 109.757812 208.496094 109.816406 C 207.699219 109.878906 206.90625 109.976562 206.117188 110.105469 C 205.328125 110.238281 204.542969 110.40625 203.769531 110.605469 C 202.996094 110.808594 202.230469 111.046875 201.476562 111.316406 C 200.722656 111.585938 199.984375 111.886719 199.257812 112.222656 C 198.53125 112.558594 197.820312 112.929688 197.128906 113.328125 C 196.433594 113.726562 195.761719 114.15625 195.105469 114.617188 C 194.449219 115.078125 193.816406 115.566406 193.203125 116.082031 C 192.59375 116.597656 192.007812 117.140625 191.441406 117.710938 C 190.878906 118.277344 190.34375 118.871094 189.832031 119.488281 C 189.324219 120.105469 188.839844 120.742188 188.386719 121.402344 C 187.933594 122.0625 187.511719 122.742188 187.121094 123.441406 C 186.992188 123.65625 186.886719 123.882812 186.804688 124.121094 C 186.726562 124.359375 186.667969 124.601562 186.632812 124.847656 C 186.601562 125.097656 186.59375 125.347656 186.609375 125.597656 C 186.625 125.847656 186.664062 126.09375 186.730469 126.335938 C 186.796875 126.578125 186.882812 126.8125 186.996094 127.035156 C 187.109375 127.257812 187.242188 127.46875 187.394531 127.667969 C 187.546875 127.867188 187.71875 128.046875 187.910156 128.210938 C 188.097656 128.375 188.304688 128.519531 188.519531 128.640625 C 188.738281 128.765625 188.96875 128.863281 189.207031 128.941406 C 189.445312 129.019531 189.6875 129.074219 189.9375 129.101562 C 190.1875 129.132812 190.433594 129.136719 190.683594 129.117188 C 190.933594 129.09375 191.179688 129.050781 191.421875 128.980469 C 191.660156 128.910156 191.894531 128.820312 192.117188 128.703125 C 192.335938 128.585938 192.546875 128.453125 192.742188 128.292969 C 192.9375 128.136719 193.113281 127.960938 193.273438 127.769531 C 193.433594 127.578125 193.574219 127.371094 193.695312 127.148438 C 194.261719 126.140625 194.910156 125.191406 195.644531 124.300781 C 196.382812 123.410156 197.191406 122.59375 198.074219 121.847656 C 198.957031 121.101562 199.898438 120.4375 200.898438 119.863281 C 201.898438 119.285156 202.941406 118.800781 204.03125 118.410156 C 205.117188 118.023438 206.230469 117.734375 207.371094 117.542969 C 208.511719 117.355469 209.65625 117.265625 210.8125 117.28125 C 211.96875 117.300781 213.113281 117.417969 214.246094 117.640625 C 215.378906 117.859375 216.484375 118.183594 217.558594 118.601562 Z M 217.558594 118.601562 " fill-opacity="1" fill-rule="nonzero"/><path fill="#ffffff" d="M 226.261719 167.90625 C 226.261719 168.570312 226.195312 169.226562 226.066406 169.875 C 225.9375 170.523438 225.746094 171.152344 225.492188 171.765625 C 225.238281 172.375 224.929688 172.957031 224.5625 173.507812 C 224.195312 174.058594 223.777344 174.566406 223.308594 175.035156 C 222.84375 175.5 222.332031 175.917969 221.785156 176.289062 C 221.234375 176.65625 220.652344 176.964844 220.042969 177.21875 C 219.429688 177.472656 218.800781 177.664062 218.152344 177.792969 C 217.503906 177.921875 216.847656 177.984375 216.1875 177.984375 C 215.527344 177.984375 214.871094 177.921875 214.222656 177.792969 C 213.574219 177.664062 212.945312 177.472656 212.332031 177.21875 C 211.722656 176.964844 211.140625 176.65625 210.589844 176.289062 C 210.042969 175.917969 209.53125 175.5 209.066406 175.035156 C 208.597656 174.566406 208.179688 174.058594 207.8125 173.507812 C 207.445312 172.957031 207.132812 172.375 206.882812 171.765625 C 206.628906 171.152344 206.4375 170.523438 206.308594 169.875 C 206.179688 169.226562 206.113281 168.570312 206.113281 167.90625 C 206.113281 167.246094 206.179688 166.589844 206.308594 165.941406 C 206.4375 165.292969 206.628906 164.664062 206.882812 164.050781 C 207.132812 163.441406 207.445312 162.859375 207.8125 162.308594 C 208.179688 161.757812 208.597656 161.25 209.066406 160.78125 C 209.53125 160.3125 210.042969 159.894531 210.589844 159.527344 C 211.140625 159.160156 211.722656 158.851562 212.332031 158.597656 C 212.945312 158.34375 213.574219 158.152344 214.222656 158.023438 C 214.871094 157.894531 215.527344 157.828125 216.1875 157.828125 C 216.847656 157.828125 217.503906 157.894531 218.152344 158.023438 C 218.800781 158.152344 219.429688 158.34375 220.042969 158.597656 C 220.652344 158.851562 221.234375 159.160156 221.785156 159.527344 C 222.332031 159.894531 222.84375 160.3125 223.308594 160.78125 C 223.777344 161.25 224.195312 161.757812 224.5625 162.308594 C 224.929688 162.859375 225.238281 163.441406 225.492188 164.050781 C 225.746094 164.664062 225.9375 165.292969 226.066406 165.941406 C 226.195312 166.589844 226.261719 167.246094 226.261719 167.90625 Z M 226.261719 167.90625 " fill-opacity="1" fill-rule="nonzero"/><path fill="#ffffff" d="M 300.832031 167.90625 C 300.832031 168.570312 300.769531 169.226562 300.640625 169.875 C 300.511719 170.523438 300.320312 171.152344 300.066406 171.765625 C 299.8125 172.375 299.503906 172.957031 299.136719 173.507812 C 298.769531 174.058594 298.351562 174.566406 297.882812 175.035156 C 297.417969 175.5 296.90625 175.917969 296.355469 176.289062 C 295.808594 176.65625 295.226562 176.964844 294.617188 177.21875 C 294.003906 177.472656 293.375 177.664062 292.726562 177.792969 C 292.078125 177.921875 291.421875 177.984375 290.761719 177.984375 C 290.101562 177.984375 289.445312 177.921875 288.796875 177.792969 C 288.148438 177.664062 287.519531 177.472656 286.90625 177.21875 C 286.296875 176.964844 285.714844 176.65625 285.164062 176.289062 C 284.617188 175.917969 284.105469 175.5 283.640625 175.035156 C 283.171875 174.566406 282.753906 174.058594 282.386719 173.507812 C 282.019531 172.957031 281.707031 172.375 281.457031 171.765625 C 281.203125 171.152344 281.011719 170.523438 280.882812 169.875 C 280.753906 169.226562 280.6875 168.570312 280.6875 167.90625 C 280.6875 167.246094 280.753906 166.589844 280.882812 165.941406 C 281.011719 165.292969 281.203125 164.664062 281.457031 164.050781 C 281.707031 163.441406 282.019531 162.859375 282.386719 162.308594 C 282.753906 161.757812 283.171875 161.25 283.640625 160.78125 C 284.105469 160.3125 284.617188 159.894531 285.164062 159.527344 C 285.714844 159.160156 286.296875 158.851562 286.90625 158.597656 C 287.519531 158.34375 288.148438 158.152344 288.796875 158.023438 C 289.445312 157.894531 290.101562 157.828125 290.761719 157.828125 C 291.421875 157.828125 292.078125 157.894531 292.726562 158.023438 C 293.375 158.152344 294.003906 158.34375 294.617188 158.597656 C 295.226562 158.851562 295.808594 159.160156 296.355469 159.527344 C 296.90625 159.894531 297.417969 160.3125 297.882812 160.78125 C 298.351562 161.25 298.769531 161.757812 299.136719 162.308594 C 299.503906 162.859375 299.8125 163.441406 300.066406 164.050781 C 300.320312 164.664062 300.511719 165.292969 300.640625 165.941406 C 300.769531 166.589844 300.832031 167.246094 300.832031 167.90625 Z M 300.832031 167.90625 " fill-opacity="1" fill-rule="nonzero"/></svg>